PathFileType	4	(X/Y/Z)	C:/Users/opensim2020/Desktop/walking_exp_matlab/subject01_walking13_straight_03.trc	
DataRate	CameraRate	NumFrames	NumMarkers	Units	OrigDataRate	OrigDataStartFrame	OrigNumFrames	
100.00	100.00	4	42	mm	100.00	1615	128	
Frame#	Time	LFHD			RFHD			LBHD			RBHD			C7			T10			CLAV			STRN			RBAK			LSHO			LUPA			LELB			LFRM			LWRA			LWRB			LFIN			RSHO			RUPA			RELB			RFRM			RWRA			RWRB			RFIN			LASI			RASI			LPSI			RPSI			LTHI			LKNE			LTIB			LANK			LHEE			LTOE			RTHI			RKNE			RTIB			RANK			RHEE			RTOE			*39			*40			*41			
		X1	Y1	Z1	X2	Y2	Z2	X3	Y3	Z3	X4	Y4	Z4	X5	Y5	Z5	X6	Y6	Z6	X7	Y7	Z7	X8	Y8	Z8	X9	Y9	Z9	X10	Y10	Z10	X11	Y11	Z11	X12	Y12	Z12	X13	Y13	Z13	X14	Y14	Z14	X15	Y15	Z15	X16	Y16	Z16	X17	Y17	Z17	X18	Y18	Z18	X19	Y19	Z19	X20	Y20	Z20	X21	Y21	Z21	X22	Y22	Z22	X23	Y23	Z23	X24	Y24	Z24	X25	Y25	Z25	X26	Y26	Z26	X27	Y27	Z27	X28	Y28	Z28	X29	Y29	Z29	X30	Y30	Z30	X31	Y31	Z31	X32	Y32	Z32	X33	Y33	Z33	X34	Y34	Z34	X35	Y35	Z35	X36	Y36	Z36	X37	Y37	Z37	X38	Y38	Z38	X39	Y39	Z39	X40	Y40	Z40	X41	Y41	Z41	X42	Y42	Z42	

17	0.160	-1126.69421	-560.94604	1657.99878	-1015.26184	-545.97058	1671.40308	-1113.02771	-668.47186	1596.15295	-993.96832	-654.98938	1608.41089	-1060.71216	-674.65466	1414.93103	-1029.50281	-712.09424	1124.13367	-1053.64307	-525.88287	1351.83984	-1045.98401	-483.43332	1196.66150	-964.42926	-729.96851	1229.75073	-1216.04688	-586.81171	1369.02124	-1290.64209	-632.47601	1186.15051	-1284.00110	-665.52002	1039.23328	-1303.79810	-645.98120	926.56250	-1278.88147	-588.16376	800.27820	-1304.63831	-642.81708	804.16431	-1314.84717	-607.62885	729.21680	-904.19049	-592.47693	1388.10730	-786.96045	-662.13568	1204.72266	-766.21021	-663.25165	1078.54517	-749.45569	-591.71362	972.78357	-793.28729	-479.29166	898.35266	-748.25366	-511.55130	880.77252	-752.45837	-443.37424	835.35632	-1127.69128	-527.72034	925.52832	-912.40936	-543.35321	915.59766	-1088.48914	-718.44849	932.19916	-944.08405	-725.98090	932.21765	-1193.22473	-487.93362	608.33582	-1175.93188	-467.35052	475.14841	-1193.17700	-498.43942	287.38876	-1146.17310	-510.91403	68.82446	-1093.67761	-554.94720	37.71233	-1153.97473	-363.58005	35.15934	-851.51489	-623.31097	579.78992	-866.27106	-641.54181	421.43610	-864.14233	-795.52405	331.95792	-904.73120	-950.35474	193.88089	-958.03833	-997.55261	216.40613	-924.65924	-932.25055	48.74076	-1038.87427	-563.41479	1701.29321	-3102.75537	1972.82166	1024.72021	-3138.61133	2013.06921	1022.18079 
18	0.170	-1129.40405	-548.61725	1658.98059	-1018.10193	-533.71460	1672.74390	-1115.95703	-656.32721	1597.35840	-996.77319	-643.03125	1609.97717	-1063.29272	-663.01056	1416.36023	-1032.36047	-700.94727	1125.45532	-1055.31384	-514.45319	1352.92053	-1048.06055	-472.12540	1197.69373	-967.25952	-718.65570	1231.03503	-1218.21252	-574.76526	1370.33264	-1293.55029	-619.02679	1187.53381	-1287.70264	-650.22131	1039.80054	-1307.49536	-627.84119	927.54932	-1282.59656	-566.61230	802.96954	-1308.50513	-621.24573	805.32837	-1318.52148	-583.80176	731.30029	-906.55109	-581.19250	1389.28369	-789.29773	-651.96826	1206.16699	-769.59973	-655.13745	1079.83252	-751.58258	-586.36377	972.28845	-793.80078	-475.12262	894.99988	-749.18732	-508.26813	878.31714	-752.51520	-441.00705	831.15167	-1130.24048	-516.89105	926.35693	-914.78479	-532.32776	916.97638	-1090.83093	-707.51038	933.19080	-946.36737	-715.68231	932.68500	-1194.84570	-482.21179	607.57117	-1177.48560	-461.93744	474.54025	-1193.48596	-496.69266	287.25589	-1146.11670	-510.95160	68.78181	-1093.58032	-554.92029	37.68370	-1154.45251	-363.48148	35.13143	-853.93024	-603.83838	578.88367	-868.68793	-617.96136	420.80670	-864.78070	-772.69409	334.39761	-906.83405	-931.07349	201.76332	-960.41425	-978.26709	225.33244	-923.01984	-917.06171	56.29366	-1042.16345	-551.26556	1702.36157	-3102.63818	1972.85535	1024.14648			 
19	0.180	-1132.09045	-536.24005	1659.96912	-1020.62366	-521.54706	1673.95459	-1118.61182	-644.14197	1598.65918	-999.56317	-631.02240	1611.34363	-1065.55139	-651.04846	1417.65479	-1035.21716	-689.87555	1126.89685	-1057.14563	-503.00327	1353.99121	-1050.03491	-460.93802	1198.67261	-970.20563	-707.54315	1232.33643	-1220.20129	-562.72815	1371.59814	-1296.36914	-605.56781	1189.01221	-1291.32092	-635.06769	1040.51599	-1311.19006	-609.43060	928.69385	-1285.95044	-544.73633	806.14655	-1312.31567	-599.26892	806.76367	-1322.82239	-559.64960	734.41718	-908.58282	-569.78015	1390.39331	-791.49451	-641.71802	1207.60046	-772.81708	-647.07501	1080.85632	-753.59344	-581.02173	971.83710	-793.99158	-470.89462	891.69537	-750.05994	-505.32425	875.79504	-752.62274	-439.14630	827.02393	-1132.47266	-506.31622	927.05383	-916.76031	-521.35382	918.61755	-1093.08545	-696.71033	934.06580	-948.68427	-704.33215	932.41064	-1196.95654	-476.01053	607.23486	-1179.66553	-457.14005	473.88013	-1193.91296	-495.30490	286.95541	-1146.04541	-510.89102	68.86240	-1093.49780	-554.89655	37.72450	-1154.63672	-363.34241	34.80332	-856.27313	-584.06921	578.76031	-870.68378	-594.27759	421.02515	-865.92340	-749.63165	336.49493	-909.47009	-912.23102	209.23537	-964.42395	-958.26215	232.22415	-920.79529	-898.97943	63.08966	-1044.55957	-539.18195	1703.83765	-3102.44922	1972.97034	1023.95831	-3138.28906	2013.17358	1022.40863 
20	0.190	-1134.45679	-523.79755	1660.96985	-1023.21631	-509.76096	1675.22839	-1121.09680	-631.81079	1599.95300	-1001.95746	-618.97638	1612.95313	-1067.72327	-639.33313	1419.14954	-1037.97327	-679.02545	1128.44336	-1059.42627	-491.43622	1355.10010	-1051.78418	-449.94019	1199.55933	-973.26233	-696.54871	1233.65491	-1222.04309	-550.71191	1373.00647	-1299.29126	-592.24188	1190.67700	-1294.92761	-620.02960	1041.30725	-1314.87939	-590.95050	930.06970	-1289.37549	-522.75323	809.36450	-1316.05261	-576.92926	808.57251	-1326.79895	-534.96191	737.77704	-910.60193	-558.41321	1391.43201	-793.57599	-631.54749	1208.95544	-775.81714	-638.52026	1081.88708	-755.60675	-575.69501	971.26495	-794.79480	-467.34561	888.24939	-751.03699	-502.96756	873.31030	-752.75641	-437.48569	822.79218	-1134.62183	-495.71463	927.80804	-918.50592	-510.57895	920.30951	-1095.11328	-686.16327	934.99628	-950.80798	-693.67773	932.40546	-1198.91833	-469.76071	606.84393	-1181.80090	-452.93649	473.06256	-1194.41113	-494.00311	286.56244	-1146.03711	-510.75586	68.83445	-1093.40039	-554.90265	37.90608	-1154.88220	-363.27048	34.59309	-858.24335	-564.90485	579.77814	-872.57556	-571.03992	422.04474	-867.47260	-726.57410	338.85678	-912.38440	-891.30328	216.02097	-968.82794	-937.42206	237.49464	-918.07556	-878.44678	69.32569	-1047.34241	-526.54626	1704.80994	-3103.05225	1972.75745	1024.61731	-3138.46826	2013.05371	1022.05988 
